<svg xmlns="http://www.w3.org/2000/svg" xmlns:xlink="http://www.w3.org/1999/xlink" width="200" zoomAndPan="magnify" viewBox="0 0 150 42" height="56" preserveAspectRatio="xMidYMid meet" version="1.0"><defs><g/><clipPath id="99c376a4fd"><path d="M 53 0 L 148.253906 0 L 148.253906 41 L 53 41 Z M 53 0 " clip-rule="nonzero"/></clipPath><clipPath id="e48f31c2fd"><rect x="0" width="96" y="0" height="41"/></clipPath><clipPath id="594df9f718"><path d="M 3 6 L 49.710938 6 L 49.710938 35.785156 L 3 35.785156 Z M 3 6 " clip-rule="nonzero"/></clipPath><clipPath id="8ada235dad"><path d="M 2.824219 5.019531 L 49 5.019531 L 49 35 L 2.824219 35 Z M 2.824219 5.019531 " clip-rule="nonzero"/></clipPath></defs><g clip-path="url(#99c376a4fd)"><g transform="matrix(1, 0, 0, 1, 53, 0.000000000000004385)"><g clip-path="url(#e48f31c2fd)"><g fill="#e18d5e" fill-opacity="1"><g transform="translate(0.20597, 31.72623)"><g><path d="M 14.03125 -9.921875 L 14.15625 -23.34375 C 14.1875 -23.414062 14.265625 -23.46875 14.390625 -23.5 C 14.515625 -23.53125 14.632812 -23.550781 14.75 -23.5625 C 14.875 -23.570312 14.9375 -23.578125 14.9375 -23.578125 C 14.9375 -23.578125 15.101562 -23.578125 15.4375 -23.578125 C 15.78125 -23.585938 16.257812 -23.566406 16.875 -23.515625 C 17.488281 -23.460938 18.207031 -23.335938 19.03125 -23.140625 C 19.050781 -23.140625 19.0625 -22.921875 19.0625 -22.484375 C 19.070312 -22.046875 19.070312 -21.441406 19.0625 -20.671875 C 19.0625 -19.910156 19.050781 -19.03125 19.03125 -18.03125 C 19.007812 -17.03125 18.988281 -15.957031 18.96875 -14.8125 C 18.945312 -13.664062 18.921875 -12.5 18.890625 -11.3125 C 18.867188 -10.125 18.84375 -8.957031 18.8125 -7.8125 C 18.789062 -6.664062 18.765625 -5.59375 18.734375 -4.59375 C 18.710938 -3.601562 18.691406 -2.726562 18.671875 -1.96875 C 18.648438 -1.207031 18.632812 -0.609375 18.625 -0.171875 C 18.613281 0.265625 18.609375 0.484375 18.609375 0.484375 L 12.625 0.3125 C 12.625 0.3125 12.554688 0.203125 12.421875 -0.015625 C 12.285156 -0.242188 12.113281 -0.519531 11.90625 -0.84375 C 11.707031 -1.175781 11.503906 -1.515625 11.296875 -1.859375 C 11.085938 -2.203125 10.90625 -2.5 10.75 -2.75 C 10.59375 -3.007812 10.5 -3.164062 10.46875 -3.21875 C 10.4375 -3.269531 10.347656 -3.425781 10.203125 -3.6875 C 10.054688 -3.945312 9.875 -4.269531 9.65625 -4.65625 C 9.445312 -5.039062 9.222656 -5.4375 8.984375 -5.84375 C 8.753906 -6.257812 8.535156 -6.648438 8.328125 -7.015625 C 8.117188 -7.390625 7.945312 -7.691406 7.8125 -7.921875 C 7.6875 -8.148438 7.625 -8.265625 7.625 -8.265625 C 7.625 -8.265625 7.628906 -8.148438 7.640625 -7.921875 C 7.648438 -7.703125 7.660156 -7.410156 7.671875 -7.046875 C 7.679688 -6.691406 7.691406 -6.3125 7.703125 -5.90625 C 7.722656 -5.507812 7.738281 -5.125 7.75 -4.75 C 7.757812 -4.375 7.769531 -4.054688 7.78125 -3.796875 C 7.789062 -3.535156 7.796875 -3.378906 7.796875 -3.328125 C 7.796875 -3.265625 7.789062 -3.101562 7.78125 -2.84375 C 7.78125 -2.59375 7.773438 -2.296875 7.765625 -1.953125 C 7.765625 -1.617188 7.757812 -1.289062 7.75 -0.96875 C 7.738281 -0.644531 7.726562 -0.375 7.71875 -0.15625 C 7.71875 0.0625 7.71875 0.171875 7.71875 0.171875 L 7.21875 0.328125 L 3.28125 0.15625 L 2.75 -0.5625 C 2.6875 -1.40625 2.632812 -2.332031 2.59375 -3.34375 C 2.5625 -4.363281 2.535156 -5.429688 2.515625 -6.546875 C 2.492188 -7.660156 2.484375 -8.78125 2.484375 -9.90625 C 2.484375 -11.039062 2.488281 -12.140625 2.5 -13.203125 C 2.507812 -14.273438 2.519531 -15.273438 2.53125 -16.203125 C 2.550781 -17.128906 2.566406 -17.9375 2.578125 -18.625 C 2.597656 -19.320312 2.613281 -19.867188 2.625 -20.265625 C 2.632812 -20.660156 2.640625 -20.859375 2.640625 -20.859375 L 3.421875 -21.09375 C 3.421875 -21.09375 3.59375 -21.09375 3.9375 -21.09375 C 4.289062 -21.101562 4.75 -21.097656 5.3125 -21.078125 C 5.875 -21.066406 6.484375 -21.03125 7.140625 -20.96875 C 7.804688 -20.90625 8.453125 -20.800781 9.078125 -20.65625 L 9.09375 -20.640625 C 9.09375 -20.640625 9.148438 -20.523438 9.265625 -20.296875 C 9.378906 -20.066406 9.523438 -19.757812 9.703125 -19.375 C 9.890625 -18.988281 10.097656 -18.566406 10.328125 -18.109375 C 10.554688 -17.660156 10.785156 -17.203125 11.015625 -16.734375 C 11.242188 -16.265625 11.457031 -15.828125 11.65625 -15.421875 C 11.851562 -15.023438 12.015625 -14.691406 12.140625 -14.421875 C 12.273438 -14.160156 12.351562 -14.007812 12.375 -13.96875 C 12.40625 -13.914062 12.476562 -13.742188 12.59375 -13.453125 C 12.71875 -13.160156 12.859375 -12.816406 13.015625 -12.421875 C 13.179688 -12.023438 13.34375 -11.632812 13.5 -11.25 C 13.65625 -10.863281 13.78125 -10.546875 13.875 -10.296875 C 13.976562 -10.046875 14.03125 -9.921875 14.03125 -9.921875 Z M 14.03125 -9.921875 "/></g></g></g><g fill="#e18d5e" fill-opacity="1"><g transform="translate(20.585839, 31.72623)"><g><path d="M 11.234375 -4.671875 L 13.796875 -4.671875 C 13.796875 -4.660156 13.78125 -4.523438 13.75 -4.265625 C 13.726562 -4.015625 13.679688 -3.6875 13.609375 -3.28125 C 13.546875 -2.882812 13.457031 -2.460938 13.34375 -2.015625 C 13.226562 -1.578125 13.082031 -1.160156 12.90625 -0.765625 C 12.90625 -0.765625 12.847656 -0.726562 12.734375 -0.65625 C 12.628906 -0.582031 12.519531 -0.507812 12.40625 -0.4375 C 12.300781 -0.375 12.25 -0.347656 12.25 -0.359375 C 12.25 -0.367188 12.078125 -0.34375 11.734375 -0.28125 C 11.398438 -0.21875 10.953125 -0.148438 10.390625 -0.078125 C 9.828125 -0.00390625 9.203125 0.046875 8.515625 0.078125 C 7.835938 0.109375 7.148438 0.09375 6.453125 0.03125 C 5.753906 -0.03125 5.09375 -0.164062 4.46875 -0.375 C 3.851562 -0.59375 3.335938 -0.90625 2.921875 -1.3125 L 2.71875 -2.046875 C 2.71875 -2.046875 2.675781 -2.265625 2.59375 -2.703125 C 2.507812 -3.148438 2.40625 -3.757812 2.28125 -4.53125 C 2.164062 -5.3125 2.050781 -6.203125 1.9375 -7.203125 C 1.832031 -8.203125 1.75 -9.265625 1.6875 -10.390625 C 1.625 -11.515625 1.601562 -12.648438 1.625 -13.796875 C 1.65625 -14.953125 1.75 -16.066406 1.90625 -17.140625 L 2.625 -17.890625 C 2.625 -17.890625 2.804688 -17.925781 3.171875 -18 C 3.535156 -18.070312 4.050781 -18.148438 4.71875 -18.234375 C 5.382812 -18.328125 6.171875 -18.390625 7.078125 -18.421875 C 7.984375 -18.460938 8.976562 -18.445312 10.0625 -18.375 C 11.15625 -18.300781 12.304688 -18.140625 13.515625 -17.890625 L 13.9375 -17.328125 C 13.9375 -17.328125 13.945312 -17.125 13.96875 -16.71875 C 13.988281 -16.320312 14.015625 -15.785156 14.046875 -15.109375 C 14.078125 -14.441406 14.097656 -13.691406 14.109375 -12.859375 C 14.128906 -12.023438 14.132812 -11.164062 14.125 -10.28125 C 14.113281 -9.40625 14.070312 -8.5625 14 -7.75 C 14 -7.707031 13.875 -7.671875 13.625 -7.640625 C 13.375 -7.617188 13.039062 -7.597656 12.625 -7.578125 C 12.21875 -7.566406 11.765625 -7.554688 11.265625 -7.546875 C 10.773438 -7.535156 10.285156 -7.53125 9.796875 -7.53125 C 9.304688 -7.53125 8.851562 -7.53125 8.4375 -7.53125 C 8.03125 -7.53125 7.703125 -7.523438 7.453125 -7.515625 C 7.203125 -7.515625 7.078125 -7.515625 7.078125 -7.515625 L 6.953125 -7.125 C 6.910156 -7.0625 6.882812 -6.925781 6.875 -6.71875 C 6.863281 -6.519531 6.859375 -6.289062 6.859375 -6.03125 C 6.867188 -5.769531 6.878906 -5.507812 6.890625 -5.25 C 6.910156 -5 6.925781 -4.789062 6.9375 -4.625 C 6.957031 -4.457031 6.96875 -4.375 6.96875 -4.375 L 7.15625 -3.3125 L 7.453125 -2.9375 C 7.503906 -2.90625 7.617188 -2.882812 7.796875 -2.875 C 7.984375 -2.863281 8.195312 -2.859375 8.4375 -2.859375 C 8.6875 -2.867188 8.929688 -2.878906 9.171875 -2.890625 C 9.410156 -2.898438 9.601562 -2.90625 9.75 -2.90625 C 9.90625 -2.914062 9.984375 -2.921875 9.984375 -2.921875 C 10.335938 -2.941406 10.582031 -3.023438 10.71875 -3.171875 C 10.863281 -3.328125 10.953125 -3.519531 10.984375 -3.75 C 11.023438 -3.988281 11.054688 -4.242188 11.078125 -4.515625 Z M 7.0625 -10.25 C 7.070312 -10.15625 7.171875 -10.082031 7.359375 -10.03125 C 7.554688 -9.988281 7.804688 -9.957031 8.109375 -9.9375 C 8.421875 -9.914062 8.75 -9.90625 9.09375 -9.90625 C 9.4375 -9.90625 9.757812 -9.90625 10.0625 -9.90625 C 10.363281 -9.914062 10.609375 -9.925781 10.796875 -9.9375 C 10.992188 -9.945312 11.09375 -9.953125 11.09375 -9.953125 C 11.09375 -9.953125 11.097656 -10.023438 11.109375 -10.171875 C 11.117188 -10.316406 11.128906 -10.5 11.140625 -10.71875 C 11.160156 -10.9375 11.175781 -11.140625 11.1875 -11.328125 C 11.195312 -11.523438 11.207031 -11.671875 11.21875 -11.765625 C 11.269531 -12.191406 11.175781 -12.445312 10.9375 -12.53125 C 10.707031 -12.613281 10.351562 -12.65625 9.875 -12.65625 C 9.101562 -12.65625 8.519531 -12.617188 8.125 -12.546875 C 7.726562 -12.484375 7.457031 -12.414062 7.3125 -12.34375 C 7.175781 -12.269531 7.109375 -12.234375 7.109375 -12.234375 C 7.066406 -12.171875 7.039062 -12.03125 7.03125 -11.8125 C 7.019531 -11.59375 7.019531 -11.34375 7.03125 -11.0625 C 7.039062 -10.78125 7.050781 -10.507812 7.0625 -10.25 Z M 7.0625 -10.25 "/></g></g></g><g fill="#e18d5e" fill-opacity="1"><g transform="translate(36.158555, 31.72623)"><g><path d="M 1.84375 -15.890625 C 2.175781 -16.203125 2.625 -16.460938 3.1875 -16.671875 C 3.75 -16.878906 4.363281 -17.046875 5.03125 -17.171875 C 5.707031 -17.304688 6.378906 -17.40625 7.046875 -17.46875 C 7.722656 -17.539062 8.34375 -17.585938 8.90625 -17.609375 C 9.46875 -17.640625 9.914062 -17.65625 10.25 -17.65625 C 10.582031 -17.65625 10.75 -17.65625 10.75 -17.65625 L 10.578125 -21.25 C 10.578125 -21.25 10.578125 -21.382812 10.578125 -21.65625 C 10.578125 -21.9375 10.578125 -22.296875 10.578125 -22.734375 C 10.578125 -23.179688 10.578125 -23.648438 10.578125 -24.140625 C 10.578125 -24.640625 10.578125 -25.109375 10.578125 -25.546875 C 10.578125 -25.984375 10.578125 -26.34375 10.578125 -26.625 C 10.585938 -26.90625 10.59375 -27.046875 10.59375 -27.046875 C 11.125 -27.171875 11.679688 -27.257812 12.265625 -27.3125 C 12.859375 -27.363281 13.40625 -27.394531 13.90625 -27.40625 C 14.414062 -27.425781 14.832031 -27.429688 15.15625 -27.421875 C 15.476562 -27.421875 15.640625 -27.421875 15.640625 -27.421875 L 16.3125 -27.21875 C 16.3125 -27.21875 16.3125 -26.976562 16.3125 -26.5 C 16.320312 -26.03125 16.332031 -25.375 16.34375 -24.53125 C 16.363281 -23.6875 16.378906 -22.707031 16.390625 -21.59375 C 16.398438 -20.488281 16.410156 -19.296875 16.421875 -18.015625 C 16.429688 -16.734375 16.4375 -15.414062 16.4375 -14.0625 C 16.4375 -12.71875 16.4375 -11.382812 16.4375 -10.0625 C 16.4375 -8.75 16.425781 -7.492188 16.40625 -6.296875 C 16.394531 -5.097656 16.375 -4.015625 16.34375 -3.046875 C 16.3125 -2.085938 16.269531 -1.289062 16.21875 -0.65625 L 15.765625 -0.046875 L 11.109375 -0.34375 L 10.9375 -1.234375 C 10.59375 -1.066406 10.222656 -0.9375 9.828125 -0.84375 C 9.429688 -0.757812 9.050781 -0.703125 8.6875 -0.671875 C 8.332031 -0.640625 8.039062 -0.625 7.8125 -0.625 C 7.582031 -0.625 7.46875 -0.625 7.46875 -0.625 C 6.71875 -0.65625 6.078125 -0.757812 5.546875 -0.9375 C 5.023438 -1.113281 4.597656 -1.3125 4.265625 -1.53125 C 3.929688 -1.75 3.6875 -1.9375 3.53125 -2.09375 C 3.382812 -2.257812 3.3125 -2.34375 3.3125 -2.34375 C 2.976562 -2.957031 2.703125 -3.65625 2.484375 -4.4375 C 2.273438 -5.21875 2.113281 -6.035156 2 -6.890625 C 1.894531 -7.753906 1.816406 -8.613281 1.765625 -9.46875 C 1.710938 -10.320312 1.6875 -11.132812 1.6875 -11.90625 C 1.695312 -12.675781 1.710938 -13.359375 1.734375 -13.953125 C 1.753906 -14.546875 1.773438 -15.015625 1.796875 -15.359375 C 1.828125 -15.710938 1.84375 -15.890625 1.84375 -15.890625 Z M 6.84375 -7.921875 C 6.769531 -7.804688 6.722656 -7.617188 6.703125 -7.359375 C 6.691406 -7.109375 6.695312 -6.828125 6.71875 -6.515625 C 6.75 -6.210938 6.78125 -5.921875 6.8125 -5.640625 C 6.851562 -5.359375 6.890625 -5.125 6.921875 -4.9375 C 6.953125 -4.75 6.96875 -4.65625 6.96875 -4.65625 C 6.96875 -4.65625 6.976562 -4.585938 7 -4.453125 C 7.019531 -4.328125 7.039062 -4.1875 7.0625 -4.03125 C 7.09375 -3.882812 7.125 -3.78125 7.15625 -3.71875 C 7.1875 -3.675781 7.304688 -3.644531 7.515625 -3.625 C 7.734375 -3.601562 7.992188 -3.59375 8.296875 -3.59375 C 8.609375 -3.59375 8.910156 -3.597656 9.203125 -3.609375 C 9.503906 -3.617188 9.753906 -3.628906 9.953125 -3.640625 C 10.148438 -3.648438 10.25 -3.65625 10.25 -3.65625 L 10.625 -3.859375 C 10.625 -3.859375 10.628906 -3.960938 10.640625 -4.171875 C 10.660156 -4.390625 10.679688 -4.664062 10.703125 -5 C 10.734375 -5.332031 10.757812 -5.679688 10.78125 -6.046875 C 10.8125 -6.421875 10.835938 -6.773438 10.859375 -7.109375 C 10.890625 -7.453125 10.910156 -7.734375 10.921875 -7.953125 C 10.929688 -8.171875 10.929688 -8.285156 10.921875 -8.296875 C 10.910156 -8.316406 10.769531 -8.328125 10.5 -8.328125 C 10.226562 -8.328125 9.898438 -8.316406 9.515625 -8.296875 C 9.128906 -8.273438 8.738281 -8.242188 8.34375 -8.203125 C 7.945312 -8.171875 7.609375 -8.128906 7.328125 -8.078125 C 7.046875 -8.023438 6.882812 -7.972656 6.84375 -7.921875 Z M 6.84375 -7.921875 "/></g></g></g><g fill="#caa780" fill-opacity="1"><g transform="translate(54.26766, 31.72623)"><g><path d="M 3.171875 -0.90625 L 2.875 -1.453125 C 2.882812 -1.597656 2.894531 -1.957031 2.90625 -2.53125 C 2.914062 -3.101562 2.921875 -3.828125 2.921875 -4.703125 C 2.929688 -5.578125 2.9375 -6.550781 2.9375 -7.625 C 2.945312 -8.707031 2.953125 -9.832031 2.953125 -11 C 2.960938 -12.164062 2.972656 -13.320312 2.984375 -14.46875 C 2.992188 -15.613281 3.003906 -16.691406 3.015625 -17.703125 C 3.023438 -18.722656 3.039062 -19.625 3.0625 -20.40625 C 3.082031 -21.195312 3.109375 -21.804688 3.140625 -22.234375 C 3.484375 -22.253906 3.914062 -22.269531 4.4375 -22.28125 C 4.957031 -22.289062 5.515625 -22.289062 6.109375 -22.28125 C 6.703125 -22.269531 7.300781 -22.253906 7.90625 -22.234375 C 8.507812 -22.222656 9.078125 -22.203125 9.609375 -22.171875 C 10.140625 -22.148438 10.59375 -22.125 10.96875 -22.09375 C 11.351562 -22.0625 11.613281 -22.023438 11.75 -21.984375 C 11.757812 -21.628906 11.757812 -21.125 11.75 -20.46875 C 11.75 -19.8125 11.738281 -19.070312 11.71875 -18.25 C 11.695312 -17.4375 11.675781 -16.578125 11.65625 -15.671875 C 11.632812 -14.773438 11.609375 -13.894531 11.578125 -13.03125 C 11.554688 -12.175781 11.535156 -11.390625 11.515625 -10.671875 C 11.492188 -9.953125 11.476562 -9.347656 11.46875 -8.859375 C 11.457031 -8.378906 11.453125 -8.070312 11.453125 -7.9375 L 15.421875 -8.203125 C 15.410156 -9.378906 15.40625 -10.5625 15.40625 -11.75 C 15.414062 -12.9375 15.425781 -14.082031 15.4375 -15.1875 C 15.445312 -16.300781 15.457031 -17.332031 15.46875 -18.28125 C 15.476562 -19.226562 15.488281 -20.054688 15.5 -20.765625 C 15.519531 -21.484375 15.535156 -22.039062 15.546875 -22.4375 C 15.554688 -22.832031 15.5625 -23.03125 15.5625 -23.03125 L 16.34375 -23.265625 C 16.34375 -23.265625 16.507812 -23.265625 16.84375 -23.265625 C 17.1875 -23.273438 17.660156 -23.253906 18.265625 -23.203125 C 18.878906 -23.148438 19.601562 -23.023438 20.4375 -22.828125 C 20.457031 -22.828125 20.46875 -22.617188 20.46875 -22.203125 C 20.46875 -21.785156 20.460938 -21.207031 20.453125 -20.46875 C 20.441406 -19.738281 20.425781 -18.894531 20.40625 -17.9375 C 20.382812 -16.988281 20.359375 -15.96875 20.328125 -14.875 C 20.296875 -13.789062 20.257812 -12.679688 20.21875 -11.546875 C 20.1875 -10.421875 20.148438 -9.3125 20.109375 -8.21875 C 20.078125 -7.125 20.046875 -6.097656 20.015625 -5.140625 C 19.984375 -4.191406 19.957031 -3.351562 19.9375 -2.625 C 19.914062 -1.90625 19.894531 -1.335938 19.875 -0.921875 C 19.863281 -0.503906 19.859375 -0.296875 19.859375 -0.296875 Z M 3.171875 -0.90625 "/></g></g></g><g fill="#caa780" fill-opacity="1"><g transform="translate(76.467723, 31.72623)"><g><path d="M 17.09375 -2.078125 C 16.757812 -1.773438 16.304688 -1.519531 15.734375 -1.3125 C 15.171875 -1.101562 14.550781 -0.929688 13.875 -0.796875 C 13.207031 -0.671875 12.535156 -0.570312 11.859375 -0.5 C 11.191406 -0.4375 10.578125 -0.390625 10.015625 -0.359375 C 9.460938 -0.335938 9.015625 -0.328125 8.671875 -0.328125 C 8.335938 -0.328125 8.171875 -0.328125 8.171875 -0.328125 L 8.34375 3.265625 C 8.34375 3.265625 8.34375 3.375 8.34375 3.59375 C 8.34375 3.8125 8.34375 4.09375 8.34375 4.4375 C 8.34375 4.789062 8.34375 5.15625 8.34375 5.53125 C 8.34375 5.914062 8.34375 6.28125 8.34375 6.625 C 8.34375 6.976562 8.34375 7.265625 8.34375 7.484375 C 8.34375 7.710938 8.335938 7.828125 8.328125 7.828125 C 7.796875 7.953125 7.226562 8.039062 6.625 8.09375 C 6.03125 8.144531 5.46875 8.175781 4.9375 8.1875 C 4.40625 8.207031 3.96875 8.210938 3.625 8.203125 C 3.289062 8.203125 3.125 8.203125 3.125 8.203125 L 2.453125 8 C 2.453125 8 2.445312 7.773438 2.4375 7.328125 C 2.4375 6.878906 2.425781 6.257812 2.40625 5.46875 C 2.394531 4.675781 2.382812 3.753906 2.375 2.703125 C 2.363281 1.660156 2.351562 0.535156 2.34375 -0.671875 C 2.332031 -1.890625 2.328125 -3.132812 2.328125 -4.40625 C 2.328125 -5.6875 2.328125 -6.957031 2.328125 -8.21875 C 2.328125 -9.476562 2.332031 -10.679688 2.34375 -11.828125 C 2.363281 -12.984375 2.390625 -14.03125 2.421875 -14.96875 C 2.453125 -15.90625 2.492188 -16.691406 2.546875 -17.328125 L 3 -17.9375 L 7.8125 -17.640625 L 7.984375 -16.75 C 8.328125 -16.914062 8.695312 -17.039062 9.09375 -17.125 C 9.5 -17.21875 9.878906 -17.28125 10.234375 -17.3125 C 10.585938 -17.34375 10.878906 -17.359375 11.109375 -17.359375 C 11.335938 -17.359375 11.453125 -17.359375 11.453125 -17.359375 C 12.203125 -17.328125 12.835938 -17.222656 13.359375 -17.046875 C 13.890625 -16.867188 14.320312 -16.671875 14.65625 -16.453125 C 14.988281 -16.234375 15.226562 -16.039062 15.375 -15.875 C 15.53125 -15.707031 15.609375 -15.625 15.609375 -15.625 C 15.941406 -15.007812 16.210938 -14.3125 16.421875 -13.53125 C 16.640625 -12.757812 16.804688 -11.941406 16.921875 -11.078125 C 17.035156 -10.222656 17.117188 -9.363281 17.171875 -8.5 C 17.222656 -7.644531 17.242188 -6.832031 17.234375 -6.0625 C 17.234375 -5.300781 17.222656 -4.617188 17.203125 -4.015625 C 17.179688 -3.421875 17.15625 -2.945312 17.125 -2.59375 C 17.101562 -2.25 17.09375 -2.078125 17.09375 -2.078125 Z M 12.078125 -3.515625 C 12.148438 -3.628906 12.191406 -3.8125 12.203125 -4.0625 C 12.222656 -4.320312 12.21875 -4.601562 12.1875 -4.90625 C 12.164062 -5.21875 12.132812 -5.515625 12.09375 -5.796875 C 12.0625 -6.078125 12.03125 -6.3125 12 -6.5 C 11.96875 -6.6875 11.953125 -6.78125 11.953125 -6.78125 C 11.953125 -6.78125 11.941406 -6.84375 11.921875 -6.96875 C 11.910156 -7.101562 11.890625 -7.25 11.859375 -7.40625 C 11.828125 -7.5625 11.796875 -7.664062 11.765625 -7.71875 C 11.734375 -7.769531 11.609375 -7.800781 11.390625 -7.8125 C 11.179688 -7.832031 10.921875 -7.84375 10.609375 -7.84375 C 10.304688 -7.84375 10.007812 -7.835938 9.71875 -7.828125 C 9.425781 -7.816406 9.175781 -7.804688 8.96875 -7.796875 C 8.769531 -7.785156 8.671875 -7.78125 8.671875 -7.78125 L 8.296875 -7.578125 C 8.296875 -7.578125 8.285156 -7.46875 8.265625 -7.25 C 8.253906 -7.039062 8.234375 -6.769531 8.203125 -6.4375 C 8.179688 -6.113281 8.15625 -5.765625 8.125 -5.390625 C 8.101562 -5.015625 8.078125 -4.65625 8.046875 -4.3125 C 8.023438 -3.976562 8.007812 -3.703125 8 -3.484375 C 7.988281 -3.265625 7.988281 -3.148438 8 -3.140625 C 8.019531 -3.117188 8.160156 -3.109375 8.421875 -3.109375 C 8.691406 -3.109375 9.019531 -3.117188 9.40625 -3.140625 C 9.789062 -3.160156 10.179688 -3.1875 10.578125 -3.21875 C 10.972656 -3.257812 11.3125 -3.304688 11.59375 -3.359375 C 11.875 -3.410156 12.035156 -3.460938 12.078125 -3.515625 Z M 12.078125 -3.515625 "/></g></g></g></g></g></g><g clip-path="url(#594df9f718)"><path fill="#d5d5f7" d="M 38.851562 35.78125 C 42.417969 35.78125 45.609375 35.058594 48.609375 33.570312 C 49.28125 33.234375 49.710938 32.554688 49.710938 31.804688 L 49.710938 10.132812 C 49.710938 9.449219 49.351562 8.8125 48.765625 8.453125 C 48.445312 8.257812 48.085938 8.160156 47.71875 8.160156 C 47.414062 8.160156 47.113281 8.226562 46.832031 8.367188 C 44.394531 9.574219 41.785156 10.164062 38.847656 10.164062 C 35.054688 10.164062 31.246094 9.21875 27.214844 8.21875 C 23.125 7.207031 18.894531 6.160156 14.609375 6.160156 C 11.042969 6.160156 7.851562 6.882812 4.851562 8.367188 C 4.175781 8.703125 3.75 9.386719 3.75 10.132812 L 3.75 31.808594 C 3.75 32.492188 4.105469 33.125 4.691406 33.484375 C 5.011719 33.679688 5.375 33.78125 5.738281 33.78125 C 6.042969 33.78125 6.347656 33.710938 6.628906 33.570312 C 9.0625 32.363281 11.675781 31.777344 14.609375 31.777344 C 18.40625 31.777344 22.214844 32.71875 26.246094 33.71875 C 30.335938 34.734375 34.5625 35.78125 38.847656 35.78125 L 38.851562 35.78125 L 38.847656 35.78125 Z M 38.851562 35.78125 " fill-opacity="1" fill-rule="nonzero"/></g><g clip-path="url(#8ada235dad)"><path fill="#efeff9" d="M 37.925781 34.648438 C 41.492188 34.648438 44.683594 33.925781 47.6875 32.4375 C 48.359375 32.101562 48.785156 31.417969 48.785156 30.671875 L 48.785156 9 C 48.785156 8.316406 48.429688 7.679688 47.84375 7.320312 C 47.523438 7.125 47.160156 7.027344 46.796875 7.027344 C 46.492188 7.027344 46.1875 7.09375 45.90625 7.234375 C 43.472656 8.441406 40.859375 9.03125 37.925781 9.03125 C 34.132812 9.03125 30.324219 8.085938 26.289062 7.085938 C 22.199219 6.070312 17.972656 5.023438 13.6875 5.023438 C 10.121094 5.023438 6.925781 5.746094 3.925781 7.234375 C 3.253906 7.570312 2.824219 8.25 2.824219 9 L 2.824219 30.671875 C 2.824219 31.355469 3.183594 31.992188 3.769531 32.351562 C 4.089844 32.546875 4.449219 32.644531 4.816406 32.644531 C 5.117188 32.644531 5.425781 32.574219 5.703125 32.4375 C 8.140625 31.230469 10.75 30.640625 13.6875 30.640625 C 17.480469 30.640625 21.289062 31.585938 25.324219 32.585938 C 29.410156 33.597656 33.640625 34.644531 37.921875 34.644531 L 37.925781 34.644531 Z M 37.925781 34.648438 " fill-opacity="1" fill-rule="nonzero"/></g><path fill="#2b4688" d="M 46.765625 30.578125 C 32.789062 37.882812 18.808594 23.273438 4.832031 30.578125 L 4.832031 9.089844 C 18.808594 1.785156 32.789062 16.394531 46.765625 9.089844 Z M 46.765625 30.578125 " fill-opacity="1" fill-rule="nonzero"/><path fill="#2b4688" d="M 46.765625 26.996094 C 32.789062 34.300781 18.808594 19.691406 4.832031 26.996094 L 4.832031 9.089844 C 18.808594 1.785156 32.789062 16.394531 46.765625 9.089844 Z M 46.765625 26.996094 " fill-opacity="1" fill-rule="nonzero"/><path fill="#ffffff" d="M 46.765625 23.414062 C 32.789062 30.71875 18.808594 16.109375 4.832031 23.414062 L 4.832031 9.089844 C 18.808594 1.785156 32.789062 16.394531 46.765625 9.089844 Z M 46.765625 23.414062 " fill-opacity="1" fill-rule="nonzero"/><path fill="#ffffff" d="M 46.765625 19.835938 C 32.789062 27.140625 18.808594 12.527344 4.832031 19.835938 L 4.832031 9.089844 C 18.808594 1.785156 32.789062 16.394531 46.765625 9.089844 Z M 46.765625 19.835938 " fill-opacity="1" fill-rule="nonzero"/><path fill="#af2533" d="M 46.765625 16.253906 C 32.789062 23.558594 18.808594 8.949219 4.832031 16.253906 L 4.832031 9.089844 C 18.808594 1.785156 32.789062 16.394531 46.765625 9.089844 Z M 46.765625 16.253906 " fill-opacity="1" fill-rule="nonzero"/><path fill="#af2533" d="M 46.765625 12.671875 C 32.789062 19.976562 18.808594 5.367188 4.832031 12.671875 L 4.832031 9.089844 C 18.808594 1.785156 32.789062 16.394531 46.765625 9.089844 Z M 46.765625 12.671875 " fill-opacity="1" fill-rule="nonzero"/><path fill="#efeff9" d="M 37.875 32.792969 C 37.351562 32.792969 36.820312 32.773438 36.277344 32.738281 C 32.777344 32.507812 29.21875 31.578125 25.78125 30.675781 C 18.921875 28.878906 11.832031 27.023438 4.867188 30.671875 C 4.816406 30.699219 4.753906 30.660156 4.753906 30.601562 L 4.753906 9.019531 L 4.796875 9 C 7.945312 7.347656 11.386719 6.671875 15.320312 6.929688 C 18.824219 7.160156 22.378906 8.089844 25.820312 8.992188 C 32.675781 10.789062 39.769531 12.644531 46.730469 9 C 46.78125 8.972656 46.84375 9.007812 46.84375 9.066406 L 46.84375 30.648438 L 46.804688 30.671875 C 44.089844 32.09375 41.152344 32.792969 37.875 32.792969 Z M 13.726562 28.410156 C 14.246094 28.410156 14.78125 28.429688 15.320312 28.464844 C 18.824219 28.695312 22.378906 29.625 25.820312 30.527344 C 32.648438 32.316406 39.710938 34.164062 46.644531 30.578125 C 46.671875 30.5625 46.6875 30.535156 46.6875 30.507812 L 46.6875 9.320312 C 46.6875 9.261719 46.628906 9.226562 46.574219 9.253906 C 43.488281 10.816406 40.117188 11.453125 36.277344 11.203125 C 32.777344 10.972656 29.21875 10.042969 25.78125 9.140625 C 18.949219 7.351562 11.886719 5.503906 4.953125 9.089844 C 4.925781 9.105469 4.910156 9.132812 4.910156 9.160156 L 4.910156 30.347656 C 4.910156 30.40625 4.972656 30.441406 5.023438 30.414062 C 7.675781 29.070312 10.539062 28.410156 13.726562 28.410156 Z M 13.726562 28.410156 " fill-opacity="1" fill-rule="nonzero"/></svg>